# xmcd
#
# Track frame offsets:
#	150
#	13320
#	39432
#	63338
#	79256
#	99207
#	114815
#	130040
#	152843
#	172532
#	189521
#
# Disc length: 2877 seconds
#
# Revision: 0
# Processed by: cddbd v1.5.2PL0 Copyright (c) Steve Scherf et al.
# Submitted via: dBpowerAMP V4.0
#
DISCID=780b3b0b
DTITLE=Rainmaker Music Group - Firewater!
DYEAR=2008
DGENRE=Blues
TTITLE0=Shake Your Money Maker - Kolvane
TTITLE1=Coal Black Mattie - Hillstomp
TTITLE2=Woman on the Hill - Colin Lake
TTITLE3=Good Girl - Rollie Tussing
TTITLE4=Shake'Em On Down - Joe McMurrian Quartet
TTITLE5=Elder Green Blues - Rollie Tussing
TTITLE6=Sugar Sweet - Kevin Selfe and the Tornadoes
TTITLE7=Shake Your Hips - Bob Shoemaker
TTITLE8=Sugar Mama - Lloyd Jones and Fiona Boyes
TTITLE9=Bowbrow - Sassparilla
TTITLE10=Spontaneous Late Night Interlude - Steve Murray and Bob Shoemaker
EXTD=
EXTT0=
EXTT1=
EXTT2=
EXTT3=
EXTT4=
EXTT5=
EXTT6=
EXTT7=
EXTT8=
EXTT9=
EXTT10=
PLAYORDER=
